<svg width="25" height="24" viewBox="0 0 25 24" fill="none" xmlns="http://www.w3.org/2000/svg">
<path d="M16.523 9.34794H21.515L18.334 6.16494C17.3099 5.14081 16.0342 4.40433 14.6352 4.02955C13.2362 3.65476 11.7632 3.65487 10.3643 4.02986C8.96534 4.40486 7.68977 5.14153 6.66581 6.16581C5.64184 7.19009 4.90557 8.46588 4.53101 9.86494M3.48501 19.6439V14.6519M3.48501 14.6519H8.47701M3.48501 14.6519L6.66501 17.8349C7.68912 18.8591 8.9648 19.5955 10.3638 19.9703C11.7628 20.3451 13.2358 20.345 14.6347 19.97C16.0337 19.595 17.3092 18.8584 18.3332 17.8341C19.3572 16.8098 20.0934 15.534 20.468 14.1349M21.515 4.35594V9.34594" stroke="white" stroke-width="1.5" stroke-linecap="round" stroke-linejoin="round"/>
</svg>
