<svg width="250" height="250" viewBox="0 0 250 250" fill="none" xmlns="http://www.w3.org/2000/svg">
<circle cx="124.75" cy="124.75" r="93.75" fill="#9FEA1C"/>
<path d="M93.75 132.813L117.188 156.25L156.25 101.563M218.75 125C218.75 137.311 216.325 149.502 211.614 160.877C206.902 172.251 199.997 182.586 191.291 191.291C182.586 199.997 172.251 206.902 160.877 211.614C149.502 216.325 137.311 218.75 125 218.75C112.689 218.75 100.498 216.325 89.1234 211.614C77.7492 206.902 67.4142 199.997 58.7087 191.291C50.0032 182.586 43.0977 172.251 38.3863 160.877C33.6749 149.502 31.25 137.311 31.25 125C31.25 100.136 41.1272 76.2903 58.7087 58.7087C76.2903 41.1272 100.136 31.25 125 31.25C149.864 31.25 173.71 41.1272 191.291 58.7087C208.873 76.2903 218.75 100.136 218.75 125Z" stroke="black" stroke-width="10" stroke-linecap="round" stroke-linejoin="round"/>
</svg>
