<svg width="18" height="22" viewBox="0 0 18 22" fill="none" xmlns="http://www.w3.org/2000/svg">
<path d="M6 13.2501L12 7.25006M16.5 3.75706V20.7501L12.75 19.2501L9 20.7501L5.25 19.2501L1.5 20.7501V3.75706C1.5 2.64906 2.306 1.70006 3.407 1.57206C7.12319 1.14069 10.8768 1.14069 14.593 1.57206C15.693 1.70006 16.5 2.64906 16.5 3.75706ZM6.75 8.00006H6.758V8.00806H6.75V8.00006ZM7.125 8.00006C7.125 8.09951 7.08549 8.1949 7.01517 8.26522C6.94484 8.33555 6.84946 8.37506 6.75 8.37506C6.65054 8.37506 6.55516 8.33555 6.48483 8.26522C6.41451 8.1949 6.375 8.09951 6.375 8.00006C6.375 7.9006 6.41451 7.80522 6.48483 7.73489C6.55516 7.66457 6.65054 7.62506 6.75 7.62506C6.84946 7.62506 6.94484 7.66457 7.01517 7.73489C7.08549 7.80522 7.125 7.9006 7.125 8.00006ZM11.25 12.5001H11.258V12.5081H11.25V12.5001ZM11.625 12.5001C11.625 12.5995 11.5855 12.6949 11.5152 12.7652C11.4448 12.8356 11.3495 12.8751 11.25 12.8751C11.1505 12.8751 11.0552 12.8356 10.9848 12.7652C10.9145 12.6949 10.875 12.5995 10.875 12.5001C10.875 12.4006 10.9145 12.3052 10.9848 12.2349C11.0552 12.1646 11.1505 12.1251 11.25 12.1251C11.3495 12.1251 11.4448 12.1646 11.5152 12.2349C11.5855 12.3052 11.625 12.4006 11.625 12.5001Z" stroke="black" stroke-width="1.5" stroke-linecap="round" stroke-linejoin="round"/>
</svg>
